<svg xmlns="http://www.w3.org/2000/svg" viewBox="-80 -82 160 164" fill="none"><polygon points="27.00,0.00 13.50,23.38 -13.50,23.38 -27.00,0.00 -13.50,-23.38 13.50,-23.38" fill="#E6B248" stroke="#E6B248" stroke-width="2.6" stroke-linejoin="round"></polygon><polygon points="27.00,-51.96 13.50,-28.58 -13.50,-28.58 -27.00,-51.96 -13.50,-75.34 13.50,-75.34" fill="none" stroke="#D89A29" stroke-width="2.6" stroke-linejoin="round"></polygon><polygon points="27.00,51.96 13.50,75.34 -13.50,75.34 -27.00,51.96 -13.50,28.58 13.50,28.58" fill="none" stroke="#D89A29" stroke-width="2.6" stroke-linejoin="round"></polygon><polygon points="72.00,-25.98 58.50,-2.60 31.50,-2.60 18.00,-25.98 31.50,-49.36 58.50,-49.36" fill="none" stroke="#D89A29" stroke-width="2.6" stroke-linejoin="round"></polygon><polygon points="72.00,25.98 58.50,49.36 31.50,49.36 18.00,25.98 31.50,2.60 58.50,2.60" fill="none" stroke="#D89A29" stroke-width="2.6" stroke-linejoin="round"></polygon><polygon points="-18.00,-25.98 -31.50,-2.60 -58.50,-2.60 -72.00,-25.98 -58.50,-49.36 -31.50,-49.36" fill="none" stroke="#D89A29" stroke-width="2.6" stroke-linejoin="round"></polygon><polygon points="-18.00,25.98 -31.50,49.36 -58.50,49.36 -72.00,25.98 -58.50,2.60 -31.50,2.60" fill="none" stroke="#D89A29" stroke-width="2.6" stroke-linejoin="round"></polygon></svg>